<mxfile host="65bd71144e">
    <diagram id="HIP3nbAZw_EuaXWnEj3U" name="Page-1">
        <mxGraphModel dx="1086" dy="692" grid="1" gridSize="10" guides="1" tooltips="1" connect="1" arrows="1" fold="1" page="1" pageScale="1" pageWidth="850" pageHeight="1100" math="0" shadow="0">
            <root>
                <mxCell id="0"/>
                <mxCell id="1" parent="0"/>
                <mxCell id="7" value="http://ics2o.mths.ca" style="swimlane;whiteSpace=wrap;html=1;fontStyle=0" parent="1" vertex="1">
                    <mxGeometry x="10" y="70" width="760" height="480" as="geometry"/>
                </mxCell>
                <mxCell id="27" value="&lt;h1&gt;&lt;font style=&quot;font-size: 30px;&quot;&gt;Volume of a Pyramid with Js&lt;/font&gt;&lt;/h1&gt;" style="text;html=1;align=center;verticalAlign=middle;resizable=0;points=[];autosize=1;strokeColor=none;fillColor=none;fontSize=15;" vertex="1" parent="7">
                    <mxGeometry x="-2.5" y="30" width="430" height="90" as="geometry"/>
                </mxCell>
                <mxCell id="15" value="3.2" style="rounded=1;whiteSpace=wrap;html=1;fontSize=15;" vertex="1" parent="1">
                    <mxGeometry x="62.5" y="235" width="85" height="15" as="geometry"/>
                </mxCell>
                <mxCell id="16" value="Formula: (L x W x H) / 3&lt;font style=&quot;font-size: 20px;&quot;&gt;&amp;nbsp;&lt;/font&gt;" style="text;html=1;align=center;verticalAlign=middle;resizable=0;points=[];autosize=1;strokeColor=none;fillColor=none;fontSize=20;" vertex="1" parent="1">
                    <mxGeometry x="37.5" y="175" width="240" height="40" as="geometry"/>
                </mxCell>
                <mxCell id="17" value="L:" style="text;html=1;align=center;verticalAlign=middle;resizable=0;points=[];autosize=1;strokeColor=none;fillColor=none;fontSize=15;" vertex="1" parent="1">
                    <mxGeometry x="22.5" y="225" width="40" height="30" as="geometry"/>
                </mxCell>
                <mxCell id="18" value="mm" style="text;html=1;align=center;verticalAlign=middle;resizable=0;points=[];autosize=1;strokeColor=none;fillColor=none;fontSize=15;" vertex="1" parent="1">
                    <mxGeometry x="147.5" y="225" width="50" height="30" as="geometry"/>
                </mxCell>
                <mxCell id="19" value="2.1" style="rounded=1;whiteSpace=wrap;html=1;fontSize=15;" vertex="1" parent="1">
                    <mxGeometry x="62.5" y="282.5" width="85" height="15" as="geometry"/>
                </mxCell>
                <mxCell id="20" value="4.8" style="rounded=1;whiteSpace=wrap;html=1;fontSize=15;" vertex="1" parent="1">
                    <mxGeometry x="62.5" y="260" width="85" height="15" as="geometry"/>
                </mxCell>
                <mxCell id="21" value="mm" style="text;html=1;align=center;verticalAlign=middle;resizable=0;points=[];autosize=1;strokeColor=none;fillColor=none;fontSize=15;" vertex="1" parent="1">
                    <mxGeometry x="147.5" y="275" width="50" height="30" as="geometry"/>
                </mxCell>
                <mxCell id="22" value="mm" style="text;html=1;align=center;verticalAlign=middle;resizable=0;points=[];autosize=1;strokeColor=none;fillColor=none;fontSize=15;" vertex="1" parent="1">
                    <mxGeometry x="147.5" y="250" width="50" height="30" as="geometry"/>
                </mxCell>
                <mxCell id="23" value="W:" style="text;html=1;align=center;verticalAlign=middle;resizable=0;points=[];autosize=1;strokeColor=none;fillColor=none;fontSize=15;" vertex="1" parent="1">
                    <mxGeometry x="22.5" y="250" width="40" height="30" as="geometry"/>
                </mxCell>
                <mxCell id="24" value="H:" style="text;html=1;align=center;verticalAlign=middle;resizable=0;points=[];autosize=1;strokeColor=none;fillColor=none;fontSize=15;" vertex="1" parent="1">
                    <mxGeometry x="22.5" y="275" width="40" height="30" as="geometry"/>
                </mxCell>
                <mxCell id="25" value="Calculate" style="rounded=1;whiteSpace=wrap;html=1;fontSize=15;" vertex="1" parent="1">
                    <mxGeometry x="40" y="335" width="80" height="30" as="geometry"/>
                </mxCell>
                <mxCell id="26" value="The area is: 50 mm&lt;sup&gt;2&lt;/sup&gt;" style="text;html=1;align=center;verticalAlign=middle;resizable=0;points=[];autosize=1;strokeColor=none;fillColor=none;fontSize=15;" vertex="1" parent="1">
                    <mxGeometry x="25" y="390" width="160" height="40" as="geometry"/>
                </mxCell>
            </root>
        </mxGraphModel>
    </diagram>
</mxfile>